<svg id="Layer_1" data-name="Layer 1" xmlns="http://www.w3.org/2000/svg" viewBox="0 0 1280 1280"><defs><style>.cls-1{fill:#fff;}.cls-2{fill:#0071bc;}</style></defs><rect class="cls-1" width="1280" height="1280" rx="226.38"/><path class="cls-2" d="M823,1253c-.77,0-1.53,0-2.29,0l-49.29-2.31-135.23-8.36-130.14-6.8H454.29l-47.52.74c-38.94,1.51-77.21,4.28-113.75,8.24l-45.29,5.78L215,1217.57l52.36-45.82A383.16,383.16,0,0,0,319.92,1112l.16-.22a403,403,0,0,0,50-93.45c23.68-61.68,44.28-153.07,61.24-271.69L463.2,517.12C480.39,397.26,500.15,316,523.61,268.49l.06-.11c29.68-59.09,67-108.41,110.8-146.57,44.06-38.35,95.83-66.4,153.87-83.37l.22-.06A305,305,0,0,1,870.74,27h.58c38.09,1.11,70.61,9.13,96.67,23.86,48.78,27.45,58.5,63.67,58.06,89.22v.34c-.92,27.22-8.93,48.47-23.79,63.15S966,225.89,939.13,225.89h-1.72c-29.59-.31-52.44-8.47-67.87-24.25-14.72-15-22.07-36.3-21.84-63.17A85.21,85.21,0,0,1,857,95.91c-55.68,2.54-104.77,23.5-150.06,64.06l-.11.1c-35.3,31.13-61.89,80.21-79,145.9l0,.18c-9.92,36.68-18.47,76.15-25.41,117.31L574.26,607.2,557.5,720.68l-19.87,116.9-.07.38c-19.8,94.26-57.38,177-111.68,246-10.25,13.66-22.43,28.52-36.4,44.41l132.94,1.71,151.09,7.63,108.67,7.59,48,2.23,18.77-1.4c16.31-2.16,30.06-7.42,42-16.06l.31-.23.33-.22c17.21-11.46,38.33-28.92,62.77-51.9L1003,1033l67.19,30-63,64.12-.26.24C987,1146.24,966,1164.94,944.36,1183l-.23.2-56.71,44.44C865.31,1244.45,843.63,1253,823,1253Z"/><path class="cls-2" d="M870.74,47q52.44,1.53,87.42,21.28,48.65,27.38,47.89,71.47-2.24,66.13-66.93,66.14h-1.48q-70.73-.74-69.94-67.66-.78-21.27,9.88-38l17.48-24.33h-38q-90.48,3.8-163.46,69.18Q635.83,196,608.45,300.92q-15.21,56.26-25.85,119.35l-28.13,184L537.75,717.54,518,833.85q-28.91,137.61-108,238-25.08,33.45-65.38,76l177.15,2.28,150.52,7.59,108.71,7.6,49.42,2.29,20.52-1.52q29.67-3.81,51.7-19.77,27.38-18.24,65.39-54l38.77-35.73,28.89,12.92-42.58,43.34q-29.64,28.14-61.57,54.74l-56.26,44.09Q847.36,1233,823,1233l-1.68,0-48.66-2.27-135.33-8.37-130.75-6.83H454.13l-47.9.75q-59.3,2.3-115.56,8.36l-35.74,4.57-10.64-10.64,36.49-31.93a401.74,401.74,0,0,0,55.5-63.11,421.29,421.29,0,0,0,52.46-98.07q36.48-95,62.34-276L483,519.87Q508.09,345,541.54,277.35,627.46,106.29,794,57.64A283.71,283.71,0,0,1,870.74,47m.58-40h-.58a325.1,325.1,0,0,0-87.57,12.12l-.22.06-.22.07C661.16,54.78,568,135.58,505.8,259.4l-.06.11-.06.12C481.27,309,460.9,392.29,443.41,514.19v.17L411.47,743.93c-16.75,117.08-37,207-60.07,267.16l0,.07,0,.06A383.24,383.24,0,0,1,303.89,1100l-.17.22-.15.23A363.38,363.38,0,0,1,254,1156.9l-36,31.54-32.17,28.16L216,1246.83l10.64,10.64,13.88,13.88,19.47-2.49,35.36-4.52c36-3.89,73.62-6.61,112-8.1l47.1-.74h51.1l129.54,6.77,135.12,8.35.3,0h.3l48.66,2.28.32,0h.33c1,0,1.94,0,2.9,0,25.11,0,50.87-9.92,76.54-29.49l.22-.17.21-.16,56.26-44.09.48-.38.46-.38c22-18.31,43.32-37.3,63.5-56.46l.51-.48.49-.5,42.57-43.34,40.34-41L1052,1033l-28.9-12.91-24-10.76-19.38,17.86-38.77,35.72-.15.14-.14.14c-23.63,22.21-43.87,39-60.16,49.83l-.65.43-.63.46c-9.06,6.56-19.66,10.61-32.37,12.36l-17,1.26-46.53-2.15-108.25-7.57-.39,0-.38,0-150.52-7.59-.76,0h-.75L431.87,1109q5.19-6.54,9.87-12.77A573.47,573.47,0,0,0,513,978.67c19.11-42.13,34-88.09,44.16-136.6l.16-.76.13-.76,19.76-116.31.08-.43.06-.43L594,610.2,622.1,426.62c6.83-40.46,15.23-79.24,25-115.25l0-.18,0-.17c16.1-61.77,40.63-107.5,72.88-135.95l.12-.1.12-.1c33.58-30.08,69.3-48.45,108.51-55.68a113,113,0,0,0-1.1,19.5c-.19,32.16,9.08,58,27.55,76.93,19.28,19.71,46.86,29.89,82,30.26h1.9c32.37,0,58.33-9.45,77.19-28.08,18.62-18.4,28.62-44.21,29.72-76.7v-.67c.53-31-10.86-74.68-68.22-107h0C948.91,17.12,913.27,8.22,871.91,7l-.59,0Z"/></svg>